# xmcd CD database file generated by OrangeCD 6.4
#
# Track frame offsets:
#	150
#	12795
#	27580
#	53362
#	61690
#	74085
#	87255
#	96665
#	117102
#	126467
#	138650
#	152230
#	160657
#	174865
#	186767
#	202902
#	216350
#	235960
#	244227
#	257300
#	271975
#	288337
#	302410
#	316945
#
# Disc length: 4366 seconds
#
# Revision: 4
# Processed by: cddbd v1.5.2PL0 Copyright (c) Steve Scherf et al.
# Submitted via: OrangeCD 6.4
#
DISCID=51110c18
DTITLE=Various Artist - 50 Beloved Songs Of Faith Album No. 2.
DYEAR=1989
DGENRE=Country
TTITLE0=Johnny Cash - In The Sweet By And By
TTITLE1=George Jones and Tammy Wynette - Me And Jesus
TTITLE2=Willie Nelson - Amazing Grace
TTITLE3=Roy Rogers and Dale Evans - The Bible Tells Me So
TTITLE4=The Carter Family - Will The Circle Be Unbroken
TTITLE5=Roy Acuff and His Smky Mtn Boys - Great Speckled Bird
TTITLE6=Marty Robbins - When The Roll Is Called Up Yonder
TTITLE7=Jim Roberts - How Great Thou Art
TTITLE8=Burl Ives - Bringing In The Sheaves
TTITLE9=Jimmie Davis w/Anita Kerr Singers - Someone To care
TTITLE10=Red Foley w/ Anita Kerr singers - Beyoind The sunset
TTITLE11=Mike Curb Congregation - The Church In the Wildwood
TTITLE12=David Houston - When They Ring Those Golden Bells
TTITLE13=Loretta Lynn - In The Garden
TTITLE14=Kurt Kaiser, Piano - Brighten The Corner
TTITLE15=Ray Price w/ Orch and Chorus - The Old Rugged Cross
TTITLE16=Larry Gatlin - Help Me
TTITLE17=Wayne Newton - Lily Of The Valley
TTITLE18=B.J. Thomas - Rock Of Ages
TTITLE19=George Jones - Family Bible
TTITLE20=Anita Bryant - Just A closer Walk
TTITLE21=Jim Nabors - Sweet Hour Of Prayer
TTITLE22=The Mormon Tabernacle Choir - The Lord's Prayer
TTITLE23=Pat Boone - I Love To Tell The Story
EXTD=
EXTT0=
EXTT1=
EXTT2=
EXTT3=
EXTT4=
EXTT5=
EXTT6=
EXTT7=
EXTT8=
EXTT9=
EXTT10=
EXTT11=
EXTT12=
EXTT13=
EXTT14=
EXTT15=
EXTT16=
EXTT17=
EXTT18=
EXTT19=
EXTT20=
EXTT21=
EXTT22=
EXTT23=
PLAYORDER=
